sfk_cyclingleg_states
version=1
nRows=13
nColumns=53
inDegrees=yes

# SIMM Motion File Header:
name sfk_cyclingleg_states
datacolumns 53
datarows 13
otherdata 1
range 0.00000000 0.04076178
endheader
time	/jointset/bb/crank_angle/value	/jointset/bb/crank_angle/speed	/jointset/spindle/pedal_angle_r/value	/jointset/spindle/pedal_angle_r/speed	/jointset/ground_pelvis/pelvis_tilt/value	/jointset/ground_pelvis/pelvis_tilt/speed	/jointset/ground_pelvis/pelvis_list/value	/jointset/ground_pelvis/pelvis_list/speed	/jointset/ground_pelvis/pelvis_rotation/value	/jointset/ground_pelvis/pelvis_rotation/speed	/jointset/ground_pelvis/pelvis_tx/value	/jointset/ground_pelvis/pelvis_tx/speed	/jointset/ground_pelvis/pelvis_ty/value	/jointset/ground_pelvis/pelvis_ty/speed	/jointset/ground_pelvis/pelvis_tz/value	/jointset/ground_pelvis/pelvis_tz/speed	/jointset/hip_r/hip_angle_r/value	/jointset/hip_r/hip_angle_r/speed	/jointset/hip_r/hip_adduction_r/value	/jointset/hip_r/hip_adduction_r/speed	/jointset/hip_r/hip_rotation_r/value	/jointset/hip_r/hip_rotation_r/speed	/jointset/knee_r/knee_angle_r/value	/jointset/knee_r/knee_angle_r/speed	/jointset/knee_r/tib_tx_r/value	/jointset/knee_r/tib_tx_r/speed	/jointset/knee_r/tib_ty_r/value	/jointset/knee_r/tib_ty_r/speed	/jointset/tib_pat_r/pat_angle_r/value	/jointset/tib_pat_r/pat_angle_r/speed	/jointset/tib_pat_r/pat_tx_r/value	/jointset/tib_pat_r/pat_tx_r/speed	/jointset/tib_pat_r/pat_ty_r/value	/jointset/tib_pat_r/pat_ty_r/speed	/jointset/ankle_r/ankle_angle_r/value	/jointset/ankle_r/ankle_angle_r/speed	/jointset/subtalar_r/subtalar_angle_r/value	/jointset/subtalar_r/subtalar_angle_r/speed	/jointset/mtp_r/mtp_angle_r/value	/jointset/mtp_r/mtp_angle_r/speed	/forceset/bifemlh_r/activation	/forceset/bifemlh_r/fiber_length	/forceset/bifemsh_r/activation	/forceset/bifemsh_r/fiber_length	/forceset/glut_max2_r/activation	/forceset/glut_max2_r/fiber_length	/forceset/vas_int_r/activation	/forceset/vas_int_r/fiber_length	/forceset/med_gas_r/activation	/forceset/med_gas_r/fiber_length	/forceset/tib_ant_r/activation	/forceset/tib_ant_r/fiber_length
      0.00000000	    -10.13487855	   -480.13863232	     -0.18628652	    613.65920629	     -0.00000000	     -0.00000000	      0.00000000	      0.00000000	     -0.00000000	      0.00000000	     -0.00000000	      0.00000000	     -0.00000000	      0.00000000	      0.00000000	     -0.00000000	     78.60177603	     45.25367511	      4.07142490	      1.29770190	     -3.88432813	     13.53270550	   -116.16290537	    129.53631322	     -0.00236933	      0.04463813	     -0.49481603	      0.04180281	     17.65105674	     -0.04736939	      0.02137025	      0.06392326	     -0.02429584	      0.01034919	     27.93911631	    -42.49350974	     -0.00000000	      0.00000000	     -0.00000000	      0.00000000	      0.05000000	      0.13491381	      0.05000000	      0.14476292	      0.05000000	      0.15328349	      0.05000000	      0.16084299	      0.05000000	      0.12998248	      0.05000000	      0.11058493
      0.00124211	    -10.73126557	   -480.13863232	      0.57567070	    613.21082259	     -0.00000000	     -0.00000000	     -0.00000000	     -0.00000000	      0.00000000	      0.00000000	      0.00000000	      0.00000000	      0.00000000	      0.00000000	     -0.00000000	     -0.00000000	     78.65652401	     42.89763639	      4.07305198	      1.32211196	     -3.86738601	     13.74619583	   -116.00050762	    131.94684966	     -0.00231348	      0.04528278	     -0.49476360	      0.04262314	     17.65099260	     -0.05599446	      0.02145032	      0.06500911	     -0.02428288	      0.01051953	     27.88600960	    -43.01355186	     -0.00000000	     -0.00000000	     -0.00000000	     -0.00000000	      0.04911617	      0.13491510	      0.04911617	      0.14476541	      0.04911617	      0.15328530	      0.04911617	      0.16082935	      0.04911617	      0.12998447	      0.04911617	      0.11058674
      0.00468964	    -12.38655569	   -480.13863232	      2.68753025	    611.92455734	     -0.00000000	     -0.00000000	      0.00000000	      0.00000000	      0.00000000	      0.00000000	      0.00000000	      0.00000000	      0.00000000	      0.00000000	     -0.00000000	     -0.00000000	     78.79308113	     36.31199308	      4.07772502	      1.38849619	     -3.81899879	     14.31986908	   -115.53420307	    138.54611884	     -0.00215439	      0.04698777	     -0.49461275	      0.04488120	     17.65075485	     -0.08259370	      0.02167954	      0.06794879	     -0.02424582	      0.01097764	     27.73535895	    -44.35879907	     -0.00000000	     -0.00000000	      0.00000000	      0.00000000	      0.04675394	      0.13493391	      0.04675394	      0.14479665	      0.04675394	      0.15330933	      0.04675394	      0.16069279	      0.04675394	      0.13001177	      0.04675394	      0.11061734
      0.01018903	    -15.02702574	   -480.13863232	      6.04685705	    609.76406908	     -0.00000000	     -0.00000000	      0.00000000	      0.00000000	      0.00000000	     -0.00000000	      0.00000000	      0.00000000	      0.00000000	      0.00000000	     -0.00000000	     -0.00000000	     78.96362930	     25.69221513	      4.08564217	      1.48978795	     -3.73785768	     15.17750118	   -114.74395879	    148.78800637	     -0.00188908	      0.04944614	     -0.49435616	      0.04842280	     17.65016528	     -0.13365638	      0.02206561	      0.07240789	     -0.02418354	      0.01166189	     27.48616386	    -46.20682743	     -0.00000000	     -0.00000000	      0.00000000	      0.00000000	      0.04324498	      0.13502059	      0.04324498	      0.14489555	      0.04324498	      0.15339296	      0.04324498	      0.16037938	      0.04324498	      0.13010089	      0.04324498	      0.11078883
      0.01386355	    -16.79130586	   -480.13863232	      8.28469958	    608.26089184	     -0.00000000	      0.00000000	      0.00000000	      0.00000000	      0.00000000	     -0.00000000	      0.00000000	      0.00000000	      0.00000000	      0.00000000	     -0.00000000	     -0.00000000	     79.04490650	     18.54023180	      4.09123522	      1.55394703	     -3.68109717	     15.71139659	   -114.18497992	    155.43055434	     -0.00170466	      0.05090643	     -0.49417395	      0.05074520	     17.64960198	     -0.17354363	      0.02233689	      0.07522645	     -0.02413990	      0.01208574	     27.31442929	    -47.23957699	     -0.00000000	     -0.00000000	      0.00000000	      0.00000000	      0.04106444	      0.13512033	      0.04106444	      0.14497932	      0.04106444	      0.15346162	      0.04106444	      0.16013250	      0.04106444	      0.13017792	      0.04106444	      0.11098070
      0.01957903	    -19.53552516	   -480.13863232	     11.75435304	    605.85374417	     -0.00000000	      0.00000000	     -0.00000000	     -0.00000000	      0.00000000	      0.00000000	      0.00000000	      0.00000000	      0.00000000	      0.00000000	     -0.00000000	     -0.00000000	     79.11896113	      7.36718621	      4.10038785	      1.64748132	     -3.58906596	     16.48051976	   -113.26783979	    165.43467124	     -0.00140789	      0.05288367	     -0.49387376	      0.05428270	     17.64841920	     -0.24143210	      0.02277878	      0.07935036	     -0.02406907	      0.01268938	     27.04056163	    -48.53109370	     -0.00000000	     -0.00000000	      0.00000000	      0.00000000	      0.03791097	      0.13532059	      0.03791097	      0.14512376	      0.03791097	      0.15356249	      0.03791097	      0.15978114	      0.03791097	      0.13030775	      0.03791097	      0.11129863
      0.02198712	    -20.69174454	   -480.13863232	     13.21206490	    604.82125686	     -0.00000000	     -0.00000000	     -0.00000000	     -0.00000000	      0.00000000	      0.00000000	      0.00000000	      0.00000000	      0.00000000	      0.00000000	     -0.00000000	     -0.00000000	     79.13102630	      2.65333922	      4.10439993	      1.68443195	     -3.54901294	     16.78265711	   -112.86451394	    169.52828362	     -0.00127965	      0.05360899	     -0.49374128	      0.05574451	     17.64780135	     -0.27188049	      0.02297186	      0.08099236	     -0.02403823	      0.01292273	     26.92316080	    -48.96316578	     -0.00000000	     -0.00000000	      0.00000000	      0.00000000	      0.03666317	      0.13541096	      0.03666317	      0.14519067	      0.03666317	      0.15359950	      0.03666317	      0.15957312	      0.03666317	      0.13036560	      0.03666317	      0.11143557
      0.02539070	    -22.32593339	   -480.13863232	     15.26811983	    603.34975173	     -0.00000000	     -0.00000000	     -0.00000000	     -0.00000000	      0.00000000	      0.00000000	      0.00000000	      0.00000000	      0.00000000	      0.00000000	     -0.00000000	     -0.00000000	     79.12872384	     -4.00469849	      4.11021830	      1.73401252	     -3.49119484	     17.18806937	   -112.27783501	    175.18994671	     -0.00109559	      0.05452512	     -0.49354808	      0.05778032	     17.64680051	     -0.31652599	      0.02325134	      0.08321630	     -0.02399371	      0.01323071	     26.75562290	    -49.46370661	     -0.00000000	     -0.00000000	      0.00000000	      0.00000000	      0.03497582	      0.13553650	      0.03497582	      0.14529014	      0.03497582	      0.15364494	      0.03497582	      0.15932615	      0.03497582	      0.13045345	      0.03497582	      0.11162807
      0.02946287	    -24.28113973	   -480.13863232	     17.72145811	    601.57802620	     -0.00000000	     -0.00000000	     -0.00000000	     -0.00000000	      0.00000000	      0.00000000	      0.00000000	      0.00000000	      0.00000000	      0.00000000	     -0.00000000	     -0.00000000	     79.09622826	    -11.95006544	      4.11739321	      1.78907332	     -3.42026874	     17.64067104	   -111.55096018	    181.77125824	     -0.00087160	      0.05545396	     -0.49330791	      0.06016773	     17.64539921	     -0.37204973	      0.02359538	      0.08572819	     -0.02393914	      0.01356480	     26.55325441	    -49.89787200	     -0.00000000	     -0.00000000	      0.00000000	      0.00000000	      0.03306784	      0.13567753	      0.03306784	      0.14541770	      0.03306784	      0.15368824	      0.03306784	      0.15899113	      0.03306784	      0.13056661	      0.03306784	      0.11185794
      0.03126311	    -25.14550672	   -480.13863232	     18.80373933	    600.79321196	     -0.00000000	     -0.00000000	     -0.00000000	     -0.00000000	      0.00000000	      0.00000000	      0.00000000	      0.00000000	      0.00000000	      0.00000000	     -0.00000000	     -0.00000000	     79.07156256	    -15.45115610	      4.12063465	      1.81188018	     -3.38833999	     17.82978897	   -111.22116282	    184.61357980	     -0.00077145	      0.05580681	     -0.49319865	      0.06120584	     17.64470684	     -0.39720042	      0.02375067	      0.08678710	     -0.02391460	      0.01370032	     26.46329820	    -50.03430862	     -0.00000000	     -0.00000000	      0.00000000	      0.00000000	      0.03226080	      0.13573568	      0.03226080	      0.14547755	      0.03226080	      0.15370348	      0.03226080	      0.15885975	      0.03226080	      0.13061875	      0.03226080	      0.11195938
      0.03562170	    -27.23823064	   -480.13863232	     21.41820748	    598.89507570	     -0.00000000	     -0.00000000	     -0.00000000	      0.00000000	      0.00000000	      0.00000000	      0.00000000	      0.00000000	      0.00000000	      0.00000000	     -0.00000000	     -0.00000000	     78.98580982	    -23.88719177	      4.12864553	      1.86306588	     -3.30967460	     18.26071803	   -110.40179719	    191.32405406	     -0.00052659	      0.05651567	     -0.49292648	      0.06367374	     17.64284090	     -0.45924969	      0.02413431	      0.08922076	     -0.02385422	      0.01399688	     26.24472691	    -50.22879236	     -0.00000000	     -0.00000000	      0.00000000	      0.00000000	      0.03039421	      0.13586470	      0.03039421	      0.14562999	      0.03039421	      0.15373053	      0.03039421	      0.15851559	      0.03039421	      0.13075618	      0.03039421	      0.11220395
      0.03765975	    -28.21678088	   -480.13863232	     22.63788843	    598.01060752	     -0.00000000	     -0.00000000	     -0.00000000	      0.00000000	      0.00000000	      0.00000000	      0.00000000	      0.00000000	      0.00000000	      0.00000000	     -0.00000000	     -0.00000000	     78.93312810	    -27.80795888	      4.13246513	      1.88499663	     -3.27226447	     18.44950931	   -110.00874597	    194.37868467	     -0.00041114	      0.05677716	     -0.49279556	      0.06480506	     17.64187497	     -0.48867205	      0.02431725	      0.09029600	     -0.02382557	      0.01412002	     26.14232342	    -50.25583383	     -0.00000000	     -0.00000000	      0.00000000	      0.00000000	      0.02956187	      0.13591917	      0.02956187	      0.14570630	      0.02956187	      0.15373846	      0.02956187	      0.15831946	      0.02956187	      0.13081908	      0.02956187	      0.11231770
      0.04076178	    -29.70618381	   -480.13863232	     24.49085325	    596.67097461	     -0.00000000	     -0.00000000	     -0.00000000	      0.00000000	      0.00000000	      0.00000000	      0.00000000	      0.00000000	      0.00000000	      0.00000000	     -0.00000000	     -0.00000000	     78.83765386	    -33.74062710	      4.13836112	      1.91587155	     -3.21460655	     18.72187235	   -109.39869292	    198.92632024	     -0.00023450	      0.05709064	     -0.49259189	      0.06649850	     17.64028927	     -0.53372915	      0.02459979	      0.09185657	     -0.02378150	      0.01428815	     25.98645806	    -50.22187809	     -0.00000000	     -0.00000000	      0.00000000	      0.00000000	      0.02834194	      0.13599493	      0.02834194	      0.14582713	      0.02834194	      0.15374487	      0.02834194	      0.15805672	      0.02834194	      0.13093753	      0.02834194	      0.11248981
